<svg xmlns:dc="http://purl.org/dc/elements/1.1/" xmlns:cc="http://creativecommons.org/ns#" xmlns:rdf="http://www.w3.org/1999/02/22-rdf-syntax-ns#" xmlns:svg="http://www.w3.org/2000/svg" xmlns="http://www.w3.org/2000/svg" xmlns:sodipodi="http://sodipodi.sourceforge.net/DTD/sodipodi-0.dtd" xmlns:inkscape="http://www.inkscape.org/namespaces/inkscape" version="1.1" xml:space="preserve" viewBox="0 0 99.999999 125" x="0px" y="0px"><g transform="matrix(1.25,0,0,-1.25,0,100)"><g transform="matrix(0.95532913,0,0,0.95532913,47.997637,30.250266)"><path d="m 0,0 c -0.01,0.034 -0.021,0.066 -0.037,0.096 -0.199,0.538 -0.335,1.102 -0.402,1.574 0,0.001 -0.001,0.002 -0.001,0.003 0,10e-4 0.001,10e-4 0,0.002 L -3.365,20.89 c -0.002,0.013 -0.01,0.022 -0.013,0.034 -10e-4,0.012 0.003,0.024 0.001,0.036 -0.018,0.111 -0.038,0.205 -0.057,0.305 -10e-4,0.005 -0.002,0.01 -0.003,0.015 -0.11,0.559 -0.246,0.956 -0.506,1.141 -0.179,0.129 -0.391,0.159 -0.58,0.084 -0.209,-0.084 -0.341,-0.267 -0.393,-0.544 -0.025,-0.131 -0.033,-0.261 -0.038,-0.393 -0.009,-0.222 -0.003,-0.443 0.011,-0.664 0,-0.001 0,-0.002 0,-0.003 l 1.03,-46.586 c 0,-0.539 -0.016,-0.987 -0.21,-1.42 -0.074,-0.167 -0.178,-0.278 -0.293,-0.313 -0.128,-0.04 -0.261,0.02 -0.353,0.076 -0.008,0.005 -0.017,0.005 -0.025,0.01 -0.008,0.004 -0.013,0.012 -0.021,0.016 -1.058,0.506 -1.879,1.606 -1.998,2.675 l 0,0 c -0.659,7.503 -2.044,22.951 -2.576,27.784 l -0.035,0.33 c -0.041,0.401 -0.083,0.802 -0.16,1.198 -0.043,0.224 -0.267,0.472 -0.496,0.486 -0.212,0.008 -0.449,-0.146 -0.518,-0.365 -0.039,-0.125 -0.06,-0.252 -0.089,-0.453 -0.201,-1.314 -0.342,-2.652 -0.479,-3.945 l -0.106,-0.991 c -0.251,-2.313 -0.491,-4.627 -0.73,-6.942 -0.474,-4.622 -0.936,-9.246 -1.389,-13.871 -0.024,-0.189 -0.147,-0.511 -0.455,-0.519 -0.176,-0.02 -0.506,0.066 -1.05,0.433 -0.007,0.005 -0.016,0.005 -0.024,0.01 -0.007,0.004 -0.011,0.012 -0.019,0.016 -0.416,0.224 -0.84,0.922 -1.044,1.497 -0.211,0.596 -0.309,1.237 -0.309,2.016 l 1.032,45.391 c 0.009,0.141 0.033,0.587 -0.015,0.977 0,0.005 -10e-4,0.01 -0.002,0.015 -0.016,0.126 -0.039,0.246 -0.073,0.345 -0.167,0.487 -0.531,0.53 -0.639,0.532 -0.287,-0.019 -0.547,-0.197 -0.676,-0.538 -0.069,-0.185 -0.113,-0.376 -0.154,-0.568 l 0.01,-0.003 c -0.008,-0.021 -0.017,-0.04 -0.021,-0.061 -0.002,-0.007 -0.006,-0.011 -0.008,-0.018 l -2.925,-15.837 c 0,-0.002 0,-0.003 0,-0.004 0,-0.002 -10e-4,-0.003 -10e-4,-0.004 -0.08,-0.473 -0.327,-1.073 -0.603,-1.256 -0.081,-0.055 -0.328,-0.218 -0.982,0.421 -0.005,0.005 -0.013,0.007 -0.018,0.012 -0.006,0.005 -0.008,0.012 -0.014,0.017 -0.424,0.348 -0.702,1.297 -0.756,2.055 -0.056,0.76 0.024,1.517 0.257,2.458 10e-4,0.006 0,0.011 10e-4,0.017 0.001,0.007 0.006,0.013 0.007,0.02 l 3.425,20.319 c 0.113,0.591 0.805,0.709 1.213,0.74 0.657,-0.004 1.225,-0.203 1.928,-0.521 l 4.953,-2.477 4.962,-3.248 c 0.966,-0.666 1.704,-1.319 2.323,-2.053 0.614,-0.73 1.284,-1.843 1.3,-2.561 0,-0.011 0.006,-0.02 0.006,-0.03 0.001,-0.01 -0.003,-0.019 -10e-4,-0.029 L 1.668,1.865 C 1.669,1.861 1.672,1.858 1.672,1.853 1.673,1.849 1.671,1.845 1.672,1.841 1.802,1.166 1.936,0.366 1.948,-0.449 1.954,-0.84 1.938,-1.166 1.844,-1.486 1.792,-1.661 1.728,-1.757 1.693,-1.803 1.677,-1.812 1.667,-1.827 1.652,-1.839 1.64,-1.835 1.628,-1.837 1.615,-1.834 1.603,-1.831 1.594,-1.823 1.582,-1.821 0.878,-1.697 0.348,-0.897 0,0 m -2.914,-25.673 c 0,0.002 0.001,0.004 0.001,0.006 l -0.956,43.224 2.44,-16.026 c 0,-10e-4 0,-10e-4 0,-10e-4 0.025,-0.176 0.146,-0.949 0.459,-1.797 l 0.518,-23.418 c -0.001,-1.353 -0.325,-1.646 -0.424,-1.703 l -2.081,-1.201 c 0.038,0.296 0.044,0.596 0.044,0.91 0,0.002 -0.001,0.004 -0.001,0.006 m -7.016,6.262 c -0.024,-0.189 -0.144,-0.401 -0.269,-0.473 l -2.159,-1.247 c 0.441,4.498 0.89,8.995 1.352,13.49 0.237,2.313 0.477,4.625 0.729,6.935 l 0.105,0.995 c 0.013,0.115 0.025,0.232 0.038,0.348 0.287,-2.883 0.676,-7.049 1.069,-11.346 -0.292,-2.9 -0.581,-5.801 -0.865,-8.702 m -6.375,44.906 -0.274,-12.057 c -0.086,-0.191 -0.196,-0.332 -0.377,-0.456 l -1.863,-1.076 c 0.02,0.09 0.034,0.16 0.04,0.19 0,0 0,0 0,0 l 0,0.004 c 0,0 0.001,0.003 0.001,0.004 l 0,0 2.473,13.391 z m 4.821,10.451 c 0.203,-0.175 0.429,-0.354 0.673,-0.524 l -4.055,2.028 c -0.004,0.002 -0.007,0.002 -0.01,0.003 -0.003,10e-4 -0.005,0.004 -0.007,0.005 -0.393,0.179 -0.836,0.356 -1.326,0.476 l 1.66,0.958 c 0.221,0.118 0.435,0.16 0.663,0.168 0.612,-1.182 1.435,-2.281 2.402,-3.114 m -1.017,9.849 c 0.152,0.034 0.305,0.05 0.457,0.05 1.06,0 2.102,-0.75 2.671,-1.24 1.841,-1.586 3.177,-4.318 3.177,-6.494 0,-0.679 -0.147,-2.291 -1.507,-2.597 -1.205,-0.269 -2.477,0.629 -3.128,1.189 -1.84,1.585 -3.174,4.316 -3.174,6.494 0,0.679 0.146,2.292 1.504,2.598 m 5.475,1.587 c 0.808,-0.436 1.481,-1.02 2.186,-1.894 1.017,-1.263 2.105,-3.339 2.105,-5.379 0,-0.678 -0.135,-1.894 -1.041,-2.417 0,0 -0.001,0 -0.001,0 l -1.578,-0.911 c 0.104,0.402 0.159,0.847 0.159,1.33 0,2.481 -1.45,5.463 -3.524,7.251 -0.615,0.531 -1.437,1.093 -2.353,1.345 l 1.568,0.906 c 0.86,0.497 1.923,0.068 2.479,-0.231 m 5.091,-14.553 c 0.968,-0.668 1.708,-1.322 2.328,-2.057 0.615,-0.73 1.284,-1.842 1.3,-2.561 0,-0.011 0.006,-0.019 0.007,-0.03 0.001,-0.01 -0.003,-0.019 -0.002,-0.028 L 5.13,3.863 c 0,-0.004 0.003,-0.007 0.004,-0.012 0,-0.004 -0.001,-0.008 0,-0.012 C 5.243,3.271 5.372,2.519 5.404,1.751 5.459,0.413 5.153,0.197 5.118,0.177 L 2.929,-1.087 c 0.02,0.224 0.022,0.443 0.019,0.653 -0.013,0.885 -0.154,1.731 -0.29,2.445 l -3.431,24.283 c -0.001,0.004 -0.004,0.008 -0.005,0.012 -0.074,1.346 -1.375,2.933 -1.526,3.112 -0.679,0.806 -1.481,1.517 -2.526,2.237 -0.001,10e-4 -0.003,10e-4 -0.005,0.002 -0.002,0.001 -0.003,0.004 -0.004,0.005 l -4.688,3.068 c 0.43,-0.164 0.886,-0.267 1.355,-0.267 0.227,0 0.457,0.024 0.688,0.076 0.317,0.071 0.6,0.199 0.857,0.365 0.013,0.005 0.026,0.003 0.038,0.01 l 0.781,0.45 3.873,-2.535 z m 4.623,-4.537 c 0,0.005 -0.003,0.008 -0.004,0.013 -0.075,1.345 -1.375,2.932 -1.526,3.111 -0.679,0.806 -1.482,1.517 -2.526,2.238 -0.002,10e-4 -0.004,10e-4 -0.006,0.002 -0.002,10e-4 -0.003,0.003 -0.005,0.004 l -3.459,2.265 1.561,0.901 c 0.001,0 0.001,10e-4 0.002,0.002 1.34,0.774 1.54,2.388 1.54,3.281 0,2.3 -1.202,4.611 -2.327,6.006 -0.78,0.97 -1.571,1.651 -2.489,2.146 -0.74,0.399 -2.173,0.958 -3.454,0.218 l -3.311,-1.911 c -0.018,-0.011 -0.028,-0.027 -0.044,-0.039 -1.038,-0.535 -1.645,-1.725 -1.645,-3.332 0,-1.012 0.25,-2.106 0.676,-3.169 -0.235,-0.049 -0.464,-0.132 -0.693,-0.254 -0.003,-0.002 -0.004,-0.004 -0.006,-0.005 -0.003,-0.002 -0.006,-0.002 -0.008,-0.003 l -3.304,-1.907 c -0.011,-0.007 -0.018,-0.018 -0.028,-0.025 -0.52,-0.242 -0.939,-0.67 -1.062,-1.314 0,-0.002 0.001,-0.004 0,-0.006 0,-0.002 -0.001,-0.003 -0.002,-0.005 l -3.426,-20.325 c -0.249,-1.018 -0.338,-1.889 -0.276,-2.737 0.063,-0.883 0.386,-2.11 1.079,-2.717 0.003,-0.003 0.004,-0.007 0.007,-0.01 0.008,-0.008 0.015,-0.012 0.023,-0.02 0.003,-0.002 0.006,-0.006 0.009,-0.009 0.002,-0.001 0.003,-0.001 0.005,-0.002 0.574,-0.549 1.065,-0.738 1.464,-0.738 0.277,0 0.506,0.093 0.692,0.209 0.007,0.004 0.015,0.002 0.022,0.006 l 3.222,1.86 -0.682,-29.969 c 0,-0.002 10e-4,-0.004 10e-4,-0.006 0,-0.002 -10e-4,-0.003 -10e-4,-0.005 0,-0.898 0.117,-1.646 0.368,-2.353 0.24,-0.677 0.76,-1.581 1.443,-1.991 0.01,-0.008 0.015,-0.02 0.026,-0.027 0.603,-0.406 1.124,-0.605 1.592,-0.605 0.015,0 0.03,0.001 0.046,0.001 0.218,0.006 0.415,0.074 0.598,0.169 0.024,0.009 0.05,0.006 0.073,0.019 l 3.448,1.991 c 0.484,0.279 0.713,0.828 0.761,1.213 0.001,0.003 0,0.005 0,0.007 0,0.003 0.002,0.005 0.002,0.007 0.115,1.175 0.234,2.35 0.35,3.525 0.298,-3.31 0.573,-6.412 0.778,-8.743 0,-0.001 10e-4,-0.003 10e-4,-0.005 0,-0.002 0,-0.004 0,-0.006 0.156,-1.398 1.163,-2.772 2.512,-3.439 0.001,-0.001 0.001,-0.002 0.002,-0.002 0.002,-10e-4 0.004,-0.002 0.006,-0.003 0.014,-0.007 0.026,-0.016 0.04,-0.023 0.007,-0.003 0.013,-10e-4 0.02,-0.004 0.236,-0.132 0.484,-0.207 0.727,-0.207 0.129,0 0.256,0.018 0.379,0.056 0.099,0.031 0.194,0.073 0.283,0.127 0.006,0.002 0.012,0.001 0.017,0.004 l 3.445,1.989 c 0.061,0.035 0.111,0.08 0.15,0.133 0.511,0.407 0.774,1.194 0.774,2.441 0,0.001 -0.001,0.003 -0.001,0.005 0,0.002 0.001,0.004 0.001,0.006 L 0.07,-2.051 c 0.342,-0.358 0.758,-0.626 1.261,-0.733 0.002,-0.001 0.004,-0.003 0.006,-0.004 0.006,-0.002 0.012,-0.001 0.017,-0.003 0.019,-0.003 0.035,-0.011 0.054,-0.014 0.026,-0.005 0.051,-0.007 0.077,-0.007 0.06,-0.011 0.12,-0.03 0.179,-0.03 0.154,0 0.304,0.037 0.444,0.11 0.036,0.019 0.062,0.048 0.095,0.071 l 3.415,1.972 c 0.062,0.036 0.113,0.084 0.153,0.138 0.465,0.39 0.681,1.145 0.632,2.343 -0.035,0.829 -0.17,1.623 -0.285,2.224 l -3.43,24.276 z" style="" fill="#000000" fill-opacity="1" fill-rule="nonzero" stroke="none"/></g></g><text x="0" y="115" fill="#000000" font-size="5px" font-weight="bold" font-family="'Helvetica Neue', Helvetica, Arial-Unicode, Arial, Sans-serif">Created by Ivan Becerra</text><text x="0" y="120" fill="#000000" font-size="5px" font-weight="bold" font-family="'Helvetica Neue', Helvetica, Arial-Unicode, Arial, Sans-serif">from the Noun Project</text></svg>
