<?xml version="1.0" encoding="utf-8"?>
<!-- Generator: Adobe Illustrator 20.1.0, SVG Export Plug-In . SVG Version: 6.00 Build 0)  -->
<svg version="1.1" id="Слой_1" xmlns="http://www.w3.org/2000/svg" xmlns:xlink="http://www.w3.org/1999/xlink" x="0px" y="0px"
	 viewBox="0 0 688.9 1257.3" style="enable-background:new 0 0 688.9 1257.3;" xml:space="preserve">
<style type="text/css">
	.st0{opacity:0.1;enable-background:new    ;}
	.st1{opacity:0.17;fill:#141414;stroke:#FFFFFF;stroke-width:8.000000e-02;stroke-miterlimit:10;enable-background:new    ;}
	.st2{opacity:0.24;fill:#272727;stroke:#FFFFFF;stroke-width:0.15;stroke-miterlimit:10;enable-background:new    ;}
	.st3{opacity:0.31;fill:#3B3B3B;stroke:#FFFFFF;stroke-width:0.23;stroke-miterlimit:10;enable-background:new    ;}
	.st4{opacity:0.38;fill:#4E4E4E;stroke:#FFFFFF;stroke-width:0.31;stroke-miterlimit:10;enable-background:new    ;}
	.st5{opacity:0.45;fill:#626262;stroke:#FFFFFF;stroke-width:0.38;stroke-miterlimit:10;enable-background:new    ;}
	.st6{opacity:0.52;fill:#767676;stroke:#FFFFFF;stroke-width:0.46;stroke-miterlimit:10;enable-background:new    ;}
	.st7{opacity:0.58;fill:#898989;stroke:#FFFFFF;stroke-width:0.54;stroke-miterlimit:10;enable-background:new    ;}
	.st8{opacity:0.65;fill:#9D9D9D;stroke:#FFFFFF;stroke-width:0.62;stroke-miterlimit:10;enable-background:new    ;}
	.st9{opacity:0.72;fill:#B1B1B1;stroke:#FFFFFF;stroke-width:0.69;stroke-miterlimit:10;enable-background:new    ;}
	.st10{opacity:0.79;fill:#C4C4C4;stroke:#FFFFFF;stroke-width:0.77;stroke-miterlimit:10;enable-background:new    ;}
	.st11{opacity:0.86;fill:#D8D8D8;stroke:#FFFFFF;stroke-width:0.85;stroke-miterlimit:10;enable-background:new    ;}
	.st12{opacity:0.93;fill:#EBEBEB;stroke:#FFFFFF;stroke-width:0.92;stroke-miterlimit:10;enable-background:new    ;}
	.st13{fill:#FFFFFF;stroke:#FFFFFF;stroke-miterlimit:10;}
</style>
<title>flatplan</title>
<path class="st0" d="M0,969.6c0-59.4,9.3-110.9,27.9-154.5c18.6-43.6,44.4-76.7,77.5-99.3c33.1-22.7,70.6-34,112.4-33.9
	c41.9,0,76.3,10.3,103.3,30.9c27,20.6,48.5,49.6,64.3,87.1c15.9,37.5,29.5,84.9,41,142.3c8.8,46.6,18.1,79.9,27.9,99.8
	c9.8,19.9,22.5,29.9,38,29.9c19.6,0,34.6-9.3,45.1-27.9c10.5-18.6,15.7-46.4,15.7-83.6c0-46.6-7.4-86.5-22.3-119.5
	c-14.9-33.1-40.5-62.8-77-89.2l121.6-89.2c38.5,34.4,67,75.3,85.6,122.6s27.9,108.7,27.9,184.4c0,54-8.1,102.5-24.3,145.4
	c-16.2,42.9-39.8,76.5-70.9,100.8c-31.1,24.3-67.9,36.5-110.4,36.5c-58.8,0-104.3-19.8-136.8-59.3c-32.4-39.5-57.1-105.5-74-198.1
	c-8.8-48-18.4-81.9-28.9-101.8c-10.5-19.9-24.1-29.9-41-29.9c-20.3,0-36.5,9.5-48.6,28.4c-12.2,18.9-18.2,45.9-18.2,81
	c0,41.9,7.9,77.8,23.8,107.9s40.7,56.2,74.5,78.5l-113.5,98.3c-42.6-38.5-73.3-80.2-92.2-125.1C9.4,1087.2,0,1033,0,969.6z"/>
<path class="st1" d="M0,918.6c0-59.4,9.3-110.9,27.9-154.5c18.6-43.6,44.4-76.7,77.5-99.3c33.1-22.7,70.6-34,112.4-33.9
	c41.9,0,76.3,10.3,103.3,30.9c27,20.6,48.5,49.6,64.3,87.1c15.9,37.5,29.9,84.9,41,142.3c9,46.5,18.1,79.9,27.9,99.8
	s22.5,29.9,38,29.9c19.6,0,34.6-9.3,45.1-27.9c10.5-18.6,15.7-46.4,15.7-83.6c0-46.6-7.4-86.5-22.3-119.5
	c-14.9-33.1-40.5-62.8-77-89.2l121.6-89.2c38.5,34.4,67,75.3,85.6,122.6s27.9,108.7,27.9,184.4c0,54-8.1,102.5-24.3,145.4
	c-16.2,42.9-39.8,76.5-70.9,100.8c-31.1,24.3-67.9,36.5-110.4,36.5c-58.8,0-104.3-19.8-136.8-59.3c-32.4-39.5-57.1-105.5-74-198.1
	c-8.8-48-18.4-81.9-28.9-101.8c-10.5-19.9-24.1-29.9-41-29.9c-20.3,0-36.5,9.5-48.6,28.4c-12.2,18.9-18.2,45.9-18.2,81
	c0,41.9,7.9,77.8,23.8,107.9s40.7,56.2,74.5,78.5l-113.5,98.3c-42.6-38.5-73.3-80.2-92.2-125.1C9.4,1036.3,0,982.1,0,918.6z"/>
<path class="st2" d="M0,867.7c0-59.4,9.3-110.9,27.9-154.5c18.6-43.6,44.4-76.7,77.5-99.3c33.1-22.7,70.6-34,112.4-33.9
	c41.9,0,76.3,10.3,103.3,30.9c27,20.6,48.5,49.6,64.3,87.1c15.9,37.5,29.9,84.9,41,142.3c9,46.5,18.1,79.9,27.9,99.8
	s22.5,29.9,38,29.9c19.6,0,34.6-9.3,45.1-27.9c10.5-18.6,15.7-46.4,15.7-83.6c0-46.6-7.4-86.5-22.3-119.5
	c-14.9-33.1-40.5-62.8-77-89.2l121.6-89.2c38.5,34.4,67,75.3,85.6,122.6s27.9,108.7,27.9,184.4c0,54-8.1,102.5-24.3,145.4
	c-16.2,42.9-39.8,76.5-70.9,100.8c-31.1,24.3-67.9,36.5-110.4,36.5c-58.8,0-104.3-19.8-136.8-59.3c-32.4-39.5-57.1-105.5-74-198.1
	c-8.8-48-18.4-81.9-28.9-101.8c-10.5-19.9-24.1-29.9-41-29.9c-20.3,0-36.5,9.5-48.6,28.4c-12.2,18.9-18.2,45.9-18.2,81
	c0,41.9,7.9,77.8,23.8,107.9s40.7,56.2,74.5,78.5l-113.5,98.3c-42.6-38.5-73.3-80.2-92.2-125.1C9.4,985.3,0,931.1,0,867.7z"/>
<path class="st3" d="M0,816.7c0-59.4,9.3-110.9,27.9-154.5c18.6-43.6,44.4-76.7,77.5-99.3c33.1-22.7,70.6-34,112.4-33.9
	c41.9,0,76.3,10.3,103.3,30.9c27,20.6,48.5,49.6,64.3,87.1c15.9,37.5,29.9,84.9,41,142.3c9,46.5,18.1,79.9,27.9,99.8
	s22.5,29.9,38,29.9c19.6,0,34.6-9.3,45.1-27.9c10.5-18.6,15.7-46.4,15.7-83.6c0-46.6-7.4-86.5-22.3-119.5
	c-14.9-33.1-40.5-62.8-77-89.2l121.6-89.1c38.5,34.4,67,75.3,85.6,122.6s27.9,108.7,27.9,184.4c0,54-8.1,102.5-24.3,145.4
	c-16.2,42.9-39.8,76.5-70.9,100.8c-31.1,24.3-67.9,36.5-110.4,36.5c-58.8,0-104.3-19.8-136.8-59.3c-32.4-39.5-57.1-105.5-74-198.1
	c-8.8-48-18.4-81.9-28.9-101.8c-10.5-19.9-24.1-29.9-41-29.9c-20.3,0-36.5,9.5-48.6,28.4c-12.2,18.9-18.2,45.9-18.2,81
	c0,41.9,7.9,77.8,23.8,107.9s40.7,56.2,74.5,78.5l-113.5,98.3c-42.6-38.5-73.3-80.2-92.2-125.1C9.4,934.3,0,880.1,0,816.7z"/>
<path class="st4" d="M0,765.7c0-59.4,9.3-110.9,27.9-154.5c18.6-43.6,44.4-76.7,77.5-99.3c33.1-22.7,70.6-34,112.4-33.9
	c41.9,0,76.3,10.3,103.3,30.9c27,20.6,48.5,49.6,64.3,87.1c15.9,37.5,29.9,84.9,41,142.3c9,46.5,18.1,79.9,27.9,99.8
	s22.5,29.9,38,29.9c19.6,0,34.6-9.3,45.1-27.9c10.5-18.6,15.7-46.4,15.7-83.6c0-46.6-7.4-86.5-22.3-119.5
	c-14.9-33.1-40.5-62.8-77-89.2l121.6-89.1c38.5,34.4,67,75.3,85.6,122.6s27.9,108.7,27.9,184.4c0,54-8.1,102.5-24.3,145.4
	c-16.2,42.9-39.8,76.5-70.9,100.8c-31.1,24.3-67.9,36.5-110.4,36.5c-58.8,0-104.3-19.8-136.8-59.3c-32.4-39.5-57.1-105.5-74-198.1
	c-8.8-48-18.4-81.9-28.9-101.8c-10.5-19.9-24.1-29.9-41-29.9c-20.3,0-36.5,9.5-48.6,28.4c-12.2,18.9-18.2,45.9-18.2,81
	c0,41.9,7.9,77.8,23.8,107.9s40.7,56.2,74.5,78.5l-113.5,98.3c-42.6-38.5-73.3-80.2-92.2-125.1C9.4,883.3,0,829.2,0,765.7z"/>
<path class="st5" d="M0,714.7c0-59.4,9.3-110.9,27.9-154.5s44.4-76.7,77.5-99.3c33.1-22.7,70.6-34,112.4-33.9
	c41.9,0,76.3,10.3,103.3,30.9c27,20.6,48.5,49.6,64.3,87.1c15.9,37.5,29.9,84.9,41,142.3c9,46.5,18.1,79.9,27.9,99.8
	s22.5,29.9,38,29.9c19.6,0,34.6-9.3,45.1-27.9c10.5-18.6,15.7-46.4,15.7-83.6c0-46.6-7.4-86.5-22.3-119.5
	c-14.9-33.1-40.5-62.8-77-89.1l121.6-89.1c38.5,34.4,67,75.3,85.6,122.6s27.9,108.7,27.9,184.4c0,54-8.1,102.5-24.3,145.4
	c-16.2,42.9-39.8,76.5-70.9,100.8c-31.1,24.3-67.9,36.5-110.4,36.5c-58.8,0-104.3-19.8-136.8-59.3c-32.4-39.5-57.1-105.5-74-198.1
	c-8.8-48-18.4-81.9-28.9-101.8c-10.5-19.9-24.1-29.9-41-29.9c-20.3,0-36.5,9.5-48.6,28.4c-12.2,18.9-18.2,45.9-18.2,81
	c0,41.9,7.9,77.8,23.8,107.9s40.7,56.2,74.5,78.5l-113.5,98.3C78,963.9,47.3,922.2,28.4,877.3C9.4,832.4,0,778.2,0,714.7z"/>
<path class="st6" d="M0,663.8c0-59.4,9.3-110.9,27.9-154.5s44.4-76.7,77.5-99.3c33.1-22.7,70.6-34,112.4-33.9
	c41.9,0,76.3,10.4,103.3,30.9c27,20.6,48.5,49.6,64.3,87.1c15.9,37.5,29.9,84.9,41,142.3c9,46.5,18.1,79.9,27.9,99.8
	s22.5,29.9,38,29.9c19.6,0,34.6-9.3,45.1-27.9c10.5-18.6,15.7-46.4,15.7-83.6c0-46.6-7.4-86.5-22.3-119.5
	c-14.9-33.1-40.5-62.8-76.9-89.2l121.6-89.1c38.5,34.4,67,75.3,85.6,122.6s27.8,108.7,27.8,184.3c0,54-8.1,102.5-24.3,145.4
	c-16.2,42.9-39.8,76.5-70.9,100.8c-31.1,24.3-67.9,36.5-110.4,36.5c-58.8,0-104.3-19.8-136.8-59.3c-32.4-39.5-57.1-105.5-74-198.1
	c-8.8-48-18.4-81.9-28.9-101.8c-10.5-19.9-24.1-29.9-41-29.9c-20.3,0-36.5,9.5-48.6,28.4c-12.2,18.9-18.2,45.9-18.2,81
	c0,41.9,7.9,77.8,23.8,107.9s40.7,56.2,74.5,78.5l-113.5,98.3C78,913,47.3,871.3,28.4,826.4C9.4,781.4,0,727.2,0,663.8z"/>
<path class="st7" d="M0,612.8c0-59.4,9.3-110.9,27.9-154.5s44.4-76.7,77.5-99.3c33.1-22.7,70.6-34,112.4-33.9
	c41.9,0,76.3,10.3,103.3,30.9c27,20.6,48.5,49.6,64.3,87.1c15.9,37.5,29.9,84.9,41,142.3c9,46.5,18.1,79.9,27.9,99.8
	s22.5,29.9,38,29.9c19.6,0,34.6-9.3,45.1-27.9c10.5-18.6,15.7-46.4,15.7-83.6c0-46.6-7.4-86.5-22.3-119.5
	c-14.9-33.1-40.5-62.8-76.9-89.2l121.6-89.1c38.5,34.4,67,75.3,85.6,122.6s27.8,108.7,27.8,184.4c0,54-8.1,102.5-24.3,145.4
	c-16.2,42.9-39.8,76.5-70.9,100.8c-31.1,24.3-67.9,36.5-110.4,36.5c-58.8,0-104.3-19.8-136.8-59.3c-32.4-39.5-57.1-105.5-74-198.1
	c-8.8-48-18.4-81.9-28.9-101.8c-10.5-19.9-24.1-29.9-41-29.9c-20.3,0-36.5,9.5-48.6,28.4c-12.2,18.9-18.2,45.9-18.2,81
	c0,41.9,7.9,77.8,23.8,107.9s40.7,56.2,74.5,78.5l-113.5,98.3C78,862,47.3,820.3,28.4,775.4C9.4,730.4,0,676.3,0,612.8z"/>
<path class="st8" d="M0,561.8c0-59.4,9.3-110.9,27.9-154.5s44.4-76.7,77.5-99.3c33.1-22.7,70.6-34,112.4-33.9
	c41.9,0,76.3,10.3,103.3,30.9c27,20.6,48.5,49.6,64.3,87.1c15.9,37.5,29.9,84.9,41,142.3c9,46.5,18.1,79.9,27.9,99.8
	s22.5,29.9,38,29.9c19.6,0,34.6-9.3,45.1-27.9c10.5-18.6,15.7-46.4,15.7-83.6c0-46.6-7.4-86.5-22.3-119.5
	c-14.9-33.1-40.5-62.8-76.9-89.2l121.6-89.1c38.5,34.4,67,75.3,85.6,122.6s27.8,108.7,27.8,184.4c0,54-8.1,102.5-24.3,145.4
	c-16.2,42.9-39.8,76.5-70.9,100.8c-31.1,24.3-67.9,36.5-110.4,36.5c-58.8,0-104.3-19.8-136.8-59.3c-32.4-39.5-57.1-105.5-74-198.1
	c-8.8-48-18.4-81.9-28.9-101.8c-10.5-19.9-24.1-29.9-41-29.9c-20.3,0-36.5,9.5-48.6,28.4c-12.2,18.9-18.2,45.9-18.2,81
	c0,41.9,7.9,77.8,23.8,107.9c15.9,30.1,40.7,56.2,74.5,78.5l-113.5,98.3C78,811,47.3,769.3,28.4,724.4C9.4,679.4,0,625.3,0,561.8z"
	/>
<path class="st9" d="M0,510.9c0-59.4,9.3-110.9,27.9-154.5s44.4-76.7,77.5-99.3c33.1-22.7,70.6-34,112.4-33.9
	c41.9,0,76.3,10.3,103.3,30.9c27,20.6,48.5,49.6,64.3,87.1c15.9,37.5,29.9,84.9,41,142.3c9,46.6,18.1,79.9,27.9,99.8
	s22.5,29.9,38,29.9c19.6,0,34.6-9.3,45.1-27.9c10.5-18.6,15.7-46.4,15.7-83.6c0-46.6-7.4-86.5-22.3-119.5
	c-14.9-33.1-40.5-62.8-76.9-89.2l121.6-89.1c38.5,34.4,67,75.3,85.6,122.6s27.8,108.8,27.8,184.4c0,54-8.1,102.5-24.3,145.4
	c-16.2,42.9-39.8,76.5-70.9,100.8c-31.1,24.3-67.9,36.5-110.4,36.5c-58.8,0-104.3-19.8-136.8-59.3c-32.4-39.5-57.1-105.5-74-198.1
	c-8.8-48-18.4-81.9-28.9-101.8c-10.5-19.9-24.1-29.9-41-29.9c-20.3,0-36.5,9.5-48.6,28.4c-12.2,18.9-18.2,45.9-18.2,81
	c0,41.9,7.9,77.8,23.8,107.9s40.7,56.2,74.5,78.5l-113.5,98.3C78,760,47.3,718.3,28.4,673.4C9.4,628.4,0,574.3,0,510.9z"/>
<path class="st10" d="M0,459.9c0-59.4,9.3-110.9,27.9-154.5s44.4-76.7,77.5-99.3c33.1-22.7,70.6-34,112.4-33.9
	c41.9,0,76.3,10.3,103.3,30.9c27,20.6,48.5,49.6,64.3,87.1c15.9,37.5,29.9,84.9,41,142.3c9,46.5,18.1,79.9,27.9,99.8
	s22.5,29.9,38,29.9c19.6,0,34.6-9.3,45.1-27.9c10.5-18.6,15.7-46.4,15.7-83.6c0-46.6-7.4-86.5-22.3-119.5
	c-14.9-33.1-40.5-62.8-77-89.1l121.6-89.1c38.5,34.4,67,75.3,85.6,122.6s27.9,108.7,27.9,184.4c0,54-8.1,102.5-24.3,145.4
	c-16.2,42.9-39.8,76.5-70.9,100.8c-31.1,24.3-67.9,36.5-110.4,36.5c-58.8,0-104.3-19.8-136.8-59.3c-32.4-39.5-57.1-105.5-74-198.1
	c-8.8-48-18.4-81.9-28.9-101.8c-10.5-19.9-24.1-29.9-41-29.9c-20.3,0-36.5,9.5-48.6,28.4c-12.2,18.9-18.2,45.9-18.2,81
	c0,41.9,7.9,77.8,23.8,107.9s40.7,56.2,74.5,78.5l-113.5,98.3C78,709.1,47.3,667.4,28.4,622.5S0,523.4,0,459.9z"/>
<path class="st11" d="M0,408.9C0,349.5,9.3,298,27.9,254.4s44.4-76.7,77.5-99.3c33.1-22.7,70.6-34,112.4-33.9s76.3,10.3,103.3,30.9
	c27,20.6,48.5,49.6,64.3,87.1c15.9,37.5,29.9,84.9,41,142.3c9,46.5,18.1,79.9,27.9,99.8s22.5,29.9,38,29.9
	c19.6,0,34.6-9.3,45.1-27.9c10.5-18.6,15.7-46.4,15.7-83.6c0-46.6-7.4-86.5-22.3-119.5c-14.9-33.1-40.5-62.8-77-89.1L575.4,102
	c38.5,34.4,67,75.3,85.6,122.6s27.9,108.7,27.9,184.4c0,54-8.1,102.5-24.3,145.4c-16.2,42.9-39.8,76.5-70.9,100.8
	c-31.1,24.3-67.9,36.5-110.4,36.5c-58.8,0-104.3-19.8-136.8-59.3c-32.4-39.5-57.1-105.5-74-198.1c-8.8-48-18.4-81.9-28.9-101.8
	c-10.5-19.9-24.1-29.9-41-29.9c-20.3,0-36.5,9.5-48.6,28.4c-12.2,18.9-18.2,45.9-18.2,81c0,41.9,7.9,77.8,23.8,107.9
	c15.9,30.1,40.7,56.2,74.5,78.5l-113.5,98.3C78,658.1,47.3,616.4,28.4,571.5C9.4,526.5,0,472.4,0,408.9z"/>
<path class="st12" d="M0,357.9C0,298.5,9.3,247,27.9,203.4s44.4-76.7,77.5-99.3c33.1-22.7,70.6-34,112.4-33.9s76.3,10.3,103.3,30.9
	c27,20.6,48.5,49.6,64.3,87.1c15.9,37.5,29.9,84.9,41,142.3c9,46.5,18.1,79.9,27.9,99.8s22.5,29.9,38,29.9
	c19.6,0,34.6-9.3,45.1-27.9c10.5-18.6,15.7-46.4,15.7-83.6c0-46.6-7.4-86.5-22.3-119.6c-14.9-33.1-40.5-62.8-77-89.2L575.4,51
	c38.5,34.4,67,75.3,85.6,122.6s27.9,108.7,27.9,184.4c0,54-8.1,102.5-24.3,145.4c-16.2,42.9-39.8,76.5-70.9,100.8
	c-31.1,24.3-67.9,36.5-110.4,36.5c-58.8,0-104.3-19.8-136.8-59.3c-32.4-39.5-57.1-105.5-74-198.1c-8.8-48-18.4-81.9-28.9-101.8
	c-10.5-19.9-24.1-29.9-41-29.9c-20.3,0-36.5,9.5-48.6,28.4c-12.2,18.9-18.2,45.9-18.2,81c0,41.9,7.9,77.8,23.8,107.9
	c15.9,30.1,40.7,56.2,74.5,78.5l-113.5,98.3C78,607.1,47.3,565.4,28.4,520.5C9.4,475.6,0,421.4,0,357.9z"/>
<path class="st13" d="M0,307c0-59.4,9.3-110.9,27.9-154.5s44.4-76.7,77.5-99.3c33.1-22.7,70.6-34,112.4-33.9s76.3,10.3,103.3,30.9
	c27,20.6,48.5,49.6,64.3,87.1s29.5,84.9,41,142.3c8.8,46.6,18.1,79.9,27.9,99.8c9.8,19.9,22.5,29.9,38,29.9
	c19.6,0,34.6-9.3,45.1-27.9c10.5-18.6,15.7-46.4,15.7-83.6c0-46.6-7.4-86.5-22.3-119.6c-14.9-33.1-40.5-62.8-77-89.2L575.4,0
	c38.5,34.4,67,75.3,85.6,122.6s27.9,108.8,27.9,184.4c0,54-8.1,102.5-24.3,145.4c-16.2,42.9-39.8,76.5-70.9,100.8
	c-31.1,24.3-67.9,36.5-110.4,36.5c-58.8,0-104.3-19.8-136.8-59.3c-32.4-39.5-57.1-105.5-74-198.1c-8.8-48-18.4-81.9-28.9-101.8
	c-10.5-19.9-24.1-29.9-41-29.9c-20.3,0-36.5,9.5-48.6,28.4c-12.2,18.9-18.2,45.9-18.2,81c0,41.9,7.9,77.8,23.8,107.9
	s40.7,56.2,74.5,78.5l-113.5,98.3C78,556.2,47.3,514.5,28.4,469.5C9.4,424.6,0,370.4,0,307z"/>
</svg>
